<svg xmlns="http://www.w3.org/2000/svg" viewBox="0 0 200 200">
  <defs>
    <linearGradient id="waterGradient" x1="0%" y1="0%" x2="0%" y2="100%">
      <stop offset="0%" style="stop-color:#87CEEB;stop-opacity:1" />
      <stop offset="100%" style="stop-color:#4682B4;stop-opacity:1" />
    </linearGradient>
    <linearGradient id="borderGradient" x1="0%" y1="0%" x2="100%" y2="100%">
      <stop offset="0%" style="stop-color:#1e3a8a;stop-opacity:1" />
      <stop offset="100%" style="stop-color:#1e40af;stop-opacity:1" />
    </linearGradient>
  </defs>
  
  <!-- Outer circle border -->
  <circle cx="100" cy="100" r="95" fill="url(#borderGradient)" stroke="#1e3a8a" stroke-width="2"/>
  
  <!-- Inner circle background -->
  <circle cx="100" cy="100" r="85" fill="#f0f8ff"/>
  
  <!-- Water waves -->
  <path d="M 20 120 Q 50 110 80 120 T 140 120 T 200 120 L 200 185 L 20 185 Z" fill="url(#waterGradient)"/>
  <path d="M 25 130 Q 55 120 85 130 T 145 130 T 205 130 L 205 185 L 25 185 Z" fill="#4682B4" opacity="0.7"/>
  
  <!-- Coach Walid figure -->
  <!-- Head -->
  <circle cx="100" cy="80" r="25" fill="#d4a574"/>
  
  <!-- Hair -->
  <path d="M 75 60 Q 100 50 125 60 Q 120 75 100 70 Q 80 75 75 60" fill="#2d1810"/>
  
  <!-- Face features -->
  <circle cx="95" cy="75" r="3" fill="#2d1810"/> <!-- Left eye -->
  <circle cx="105" cy="75" r="3" fill="#2d1810"/> <!-- Right eye -->
  <path d="M 95 85 Q 100 90 105 85" stroke="#2d1810" stroke-width="2" fill="none"/> <!-- Smile -->
  <path d="M 90 70 Q 95 68 100 70" stroke="#2d1810" stroke-width="1.5" fill="none"/> <!-- Left eyebrow -->
  <path d="M 100 70 Q 105 68 110 70" stroke="#2d1810" stroke-width="1.5" fill="none"/> <!-- Right eyebrow -->
  
  <!-- Body (white polo shirt) -->
  <rect x="85" y="105" width="30" height="40" fill="white" rx="5"/>
  <rect x="90" y="110" width="20" height="25" fill="white"/>
  
  <!-- Shirt buttons -->
  <circle cx="100" cy="115" r="2" fill="#cbd5e0"/>
  <circle cx="100" cy="125" r="2" fill="#cbd5e0"/>
  <circle cx="100" cy="135" r="2" fill="#cbd5e0"/>
  
  <!-- Lanyard with stopwatch -->
  <path d="M 100 105 Q 100 95 110 90" stroke="#1e3a8a" stroke-width="3" fill="none"/>
  <circle cx="110" cy="90" r="8" fill="#c0c0c0" stroke="#1e3a8a" stroke-width="1"/>
  <circle cx="110" cy="90" r="6" fill="white"/>
  <circle cx="110" cy="90" r="4" fill="#1e3a8a"/>
  <circle cx="110" cy="90" r="2" fill="white"/>
  
  <!-- Small swimmer icon in stopwatch -->
  <circle cx="110" cy="88" r="1" fill="#1e3a8a"/> <!-- Head -->
  <path d="M 110 89 L 108 91 M 110 89 L 112 91" stroke="#1e3a8a" stroke-width="0.5" fill="none"/> <!-- Arms -->
  <path d="M 110 91 L 109 93 M 110 91 L 111 93" stroke="#1e3a8a" stroke-width="0.5" fill="none"/> <!-- Legs -->
  
  <!-- Hands -->
  <circle cx="80" cy="130" r="8" fill="#d4a574"/>
  <circle cx="120" cy="130" r="8" fill="#d4a574"/>
  
  <!-- Swimming cap in hand -->
  <ellipse cx="80" cy="130" rx="5" ry="3" fill="#1e3a8a"/>
  
  <!-- Text around the circle -->
  <path d="M 20 20 A 75 75 0 0 1 180 20" fill="none" stroke="white" stroke-width="2"/>
  <text x="100" y="25" text-anchor="middle" fill="white" font-family="Arial, sans-serif" font-size="12" font-weight="bold">
    <textPath href="#topArc" startOffset="50%">COACH WALID</textPath>
  </text>
  
  <path d="M 180 180 A 75 75 0 0 1 20 180" fill="none" stroke="white" stroke-width="2"/>
  <text x="100" y="195" text-anchor="middle" fill="white" font-family="Arial, sans-serif" font-size="12" font-weight="bold">
    <textPath href="#bottomArc" startOffset="50%">NATATION PERFORMANCE</textPath>
  </text>
  
  <!-- Define text paths -->
  <defs>
    <path id="topArc" d="M 20 20 A 75 75 0 0 1 180 20"/>
    <path id="bottomArc" d="M 180 180 A 75 75 0 0 1 20 180"/>
  </defs>
</svg>
